<svg id="Camada_2" data-name="Camada 2" xmlns="http://www.w3.org/2000/svg" width="135.558" height="107.837" viewBox="0 0 135.558 107.837">
  <g id="Object">
    <path id="Caminho_4" data-name="Caminho 4" d="M123.961,39.591H104.837A53.335,53.335,0,0,0,53.377,0C23.943,0,0,24.187,0,53.917s23.943,53.92,53.377,53.92c26.046,0,48.412-19.26,52.639-45.051h17.945a11.6,11.6,0,0,0,0-23.2Zm0,19.678H103l-.207,1.519A50.2,50.2,0,0,1,53.377,104.32c-27.524,0-49.9-22.611-49.9-50.4s22.383-50.4,49.9-50.4a49.868,49.868,0,0,1,48.436,38.3l.364,1.485,1.505-.156a8.073,8.073,0,0,1,.812-.041h19.467a8.081,8.081,0,0,1,0,16.161Z" fill="#fff"/>
    <path id="Caminho_5" data-name="Caminho 5" d="M76.989,32.9A42.741,42.741,0,1,0,119.3,75.637,42.526,42.526,0,0,0,76.989,32.9Zm-3.755,8.417c1.284.364,2.222,1.991,3.3,3.058h.02c1.081-1.064,2.018-2.691,3.3-3.058,1.424-.4,3.232,3.194,2.307,5.165-1.393,2.96-3.208,5.743-5.165,9.035-.126.292-.251.584-.377.89l-.078-.129-.078.129c-.126-.306-.251-.6-.377-.89-1.957-3.293-3.772-6.076-5.165-9.035C70,44.511,71.827,40.916,73.234,41.317ZM71.24,51.674c1.995,3.13,3.908,6.137,5.692,8.94l5.7-9.973c3.34,8.026-4.74,11.353-5.705,17.252C71.488,62.538,68.881,55.432,71.24,51.674Zm-3.429,7.54L76.7,74.407c2.518-5.053,5.41-10.85,8.318-16.681,2.647,3.986,2.249,11.645-.88,14.863-2.331,2.4-4.859,4.6-7.136,6.745-2.667-2.355-5.464-4.733-8.155-7.224C65.371,68.913,64.936,63.489,67.811,59.214Zm2.528,18.74a12.889,12.889,0,0,1,5.145,8.988c-1.94-4.237-4.954-7.2-9.749-8.281l8.23,8.835c-8.39-3.84-14.272-9.559-14.255-19.607C61.633,73.1,66.37,75.1,70.339,77.955ZM53.876,75.236c1.019,1.556,1.8,2.681,2.528,3.84,2.718,4.316,6.677,6.589,11.553,7.748,5.073,1.206,7.846,4.5,8.315,9.9-1.617-4.132-4.645-5.247-7.843-6.191-3-.887-5.967-1.92-9.154-2.956,1.791,3.425,4.808,4.9,8.121,6.049,1.984.68,4.159,1.25,5.756,2.508a12.487,12.487,0,0,1,3.4,5.4c-2.718-4.183-7.02-5.1-11.285-6.222-9.494-2.494-14.421-10.965-11.39-20.082Zm21.72,36.7c-2.793-1.794-5.416-3.938-8.376-5.369-3.5-1.7-7.408-2.532-10.935-4.183a16.864,16.864,0,0,1-8.954-18.948,5.464,5.464,0,0,1,.846-1.883c1.682,9.114,7.955,12.743,15.872,14.612,4.193.985,8.006,2.865,10.717,6.426a6.531,6.531,0,0,1,1.332,3.983,11.469,11.469,0,0,0-1.947-2.039c-2.742-1.7-5.219-4.36-8.383-4.849A30.073,30.073,0,0,1,53.4,94.473a17.866,17.866,0,0,0,4.309,5.552c2.331,2.27,4.988,2.039,8.118,2.977,4.584,1.383,8.866,3.034,10.731,8.07.133.364.618.595.646,1.533A9.218,9.218,0,0,1,75.6,111.935Zm6.225-34.66c3.653-3.588,8.23-6.419,9.392-12.111C92.824,75.542,87.652,82.4,79.589,87.728l7.105-10.463c-4.784,1.886-7.428,5.437-8.764,10.13a13.589,13.589,0,0,1,3.891-10.106Zm4.333,11.047c-4.632,1.335-4.268,1.93-6.946,5.726a1.088,1.088,0,0,0-.2-.088,22.86,22.86,0,0,1,2.973-4.975c1.852-2.124,4.492-3.524,6.623-5.437,3.33-2.97,6.521-6.116,9.62-9.025,1.7,3.446.591,10.235-3.49,13.891-3.028,2.718-6.755,4.638-10.211,6.854-1.927,1.237-3.894,2.379-5.8,3.524a4.462,4.462,0,0,1,.873-2.317c2.012-2.063,3.167-4.366,5.328-5.274,2.379-1,5.131-3.636,6.922-5.495C91.6,85.485,88.75,87.418,86.154,88.322Zm20.582,2.171c-1.213,5.2-4.791,8.5-9.27,10.8a75.191,75.191,0,0,1-8.539,3.4c-3.031,1.1-6.117,2.076-9.96,3.378,5.729-6.246,14.951-5.165,19.9-11.757l-19.906,8.339c.5-2.107,2.311-3.867,4.693-5.066,3.028-1.526,6.161-2.841,9.2-4.339,6.174-3.058,10.486-7.544,10.986-15.8a11.2,11.2,0,0,1,2.892,11.027Z" transform="translate(-22.896 -21.72)" fill="#fff"/>
  </g>
</svg>
